<?xml version="1.0" encoding="utf-8"?>
<!-- Generator: Adobe Illustrator 14.0.0, SVG Export Plug-In . SVG Version: 6.00 Build 43363)  -->
<!DOCTYPE svg PUBLIC "-//W3C//DTD SVG 1.1//EN" "http://www.w3.org/Graphics/SVG/1.1/DTD/svg11.dtd">
<svg version="1.1" id="Layer_1" xmlns="http://www.w3.org/2000/svg" xmlns:xlink="http://www.w3.org/1999/xlink" x="0px" y="0px"
	 width="595.279px" height="841.891px" viewBox="0 0 595.279 841.891" enable-background="new 0 0 595.279 841.891"
	 xml:space="preserve">
<path fill="none" stroke="#000000" d="M161.5,426.501c4.361-3.524,8.183-7.635,10.499-12.807c1.66-2.454,3.247-4.955,4.762-7.501
	c-3.444-2.458-6.751-5.243-9.202-8.732c-8.951-12.742-3.788-24.428-3.02-38.924c6.629-1.121,15.726,0.87,22.444,1.388
	c8.701,0.669,19.377-5.111,27.051-8.992c11.818-5.977,29.837-4.026,31.114-19.269c0.387-4.605,3.531-2.653,5.469,0.159
	c4.167,6.051,4.584,12.71,13.385,13.042c11.007,0.414,22.191,0.856,33.131,2.184c7.665,0.93,19.587,4.008,27.066,1.476
	c1.545,14.765,3.729,24.561,14,36.256c4.343,4.946,13.188,11.866,6.378,18.018c-5.3,4.787-4.766,9.852-9.239,14.651
	c-11.364,12.199-21.635,25.438-33.654,37.118c-5.343,5.192-12.896,11.195-16.168,17.889c-3.457,7.072-2.876,17.927-2.085,26.243
	c1.197,12.578,29.811,13.56,39.575,13.616c10.334,0.062,6.288-12.489,4.433-18.505c-2.731-8.864,6.958-13.915,13.186-16.293
	c17.681-6.754,29.388-17.188,44.753-27.291c5.155-3.39,42.416-24.186,47.374-25.728"/>
</svg>
