<?xml version="1.0" encoding="utf-8"?>
<!-- Generator: Adobe Illustrator 14.0.0, SVG Export Plug-In . SVG Version: 6.00 Build 43363)  -->
<!DOCTYPE svg PUBLIC "-//W3C//DTD SVG 1.1//EN" "http://www.w3.org/Graphics/SVG/1.1/DTD/svg11.dtd">
<svg version="1.1" id="Layer_1" xmlns="http://www.w3.org/2000/svg" xmlns:xlink="http://www.w3.org/1999/xlink" x="0px" y="0px"
	 width="595.279px" height="841.891px" viewBox="0 0 595.279 841.891" enable-background="new 0 0 595.279 841.891"
	 xml:space="preserve">
<path fill="none" stroke="#010202" stroke-linecap="round" stroke-miterlimit="10" d="M280,562.667
	c-6.661-8.989-18.914-14.153-24.574-24.13c-3.181-5.607-7.531-9.886-10.753-15.253c-4.381-7.299,4.407-9.443,7.983-13.377
	c8.748-9.61,0.128-23.984,11.265-33.667c10.619-9.231,23.708-6.147,34.187-16.664c8.783-8.813,18.17-12.516,17.087-26.596
	c-1.091-14.189-26.529-21.914-37.527-23.998c-4.332-0.82-15.424-6.487-15.666,1.42c-0.255,8.329,9.272,7.306,13.688,11.522
	c9.305,8.885,4.083,29.18-9.689,29.742c-5.275,0.215-15.908-17.081-18.311-21.543c-6.354-11.804-12.422-29.513-3.947-42.015
	c6.711-9.903,26.268-4.636,36.054-4.522c15.456,0.177,26.825-15.683,36.767-25.813c9.867-10.053,51.047-59.697,36.646-74.336
	c-5.82-5.916-17.506-4.076-24.875-3.438c-15.402,1.336-34.083,3.587-48.334,9.999"/>
</svg>
